<svg xmlns="http://www.w3.org/2000/svg" viewBox="0 0 783.79 581.99"><defs><style>.cls-1{fill:#c9eeff;}.cls-2{fill:#fff;}.cls-3,.cls-6{fill:#00a1eb;}.cls-4{fill:#001d57;}.cls-5{fill:#78d4ff;}.cls-6{fill-rule:evenodd;}</style></defs><g id="Layer_2" data-name="Layer 2"><g id="Layer_1-2" data-name="Layer 1"><path class="cls-1" d="M194.48,130.92c22.36,24.54,53.67,38.86,88,47,35.39,8.38,74.15,10.21,109.4,10,35.38.19,74.35-1.66,110-10.21,34.61-8.29,66.07-22.85,88.32-47.82,13.31,3.65,23.77,7.75,30.55,12.25,27.36,18.19,43.11,48.16,52,82.22,9.2,35.2,11.15,74.76,11,110.64v.07c.2,35.87-1.75,75.44-11,110.64-8.9,34.06-24.65,64-52,82.22-32.42,21.54-149.28,34-260.41,31.42-93.23-2.19-181.46-14.94-210.28-41.81-21.64-20.16-34.18-49.12-41.3-81-7.32-32.78-8.94-68.64-8.76-101.47V335c-.18-32.83,1.44-68.7,8.76-101.47,7.12-31.88,19.66-60.84,41.3-81,9.26-8.63,24.66-15.81,44.38-21.64Z"/><path class="cls-2" d="M207.73,143.48c20.76,17.05,46.76,27.81,74.77,34.45,35.39,8.38,74.15,10.21,109.4,10,35.38.19,74.35-1.66,110-10.21,23.09-5.53,44.78-13.85,63.27-26.2,8,2.72,14.57,5.65,19.29,8.78,54.39,36.15,62.11,117.35,61.74,184.5.37,67.15-7.35,148.35-61.74,184.5-26.27,17.45-108.43,28.76-195.72,30.4-9.46,0-18.94-.12-28.38-.34-93.23-2.19-181.46-14.94-210.28-41.81-21.64-20.16-34.18-49.12-41.3-81-7.32-32.78-8.94-68.64-8.76-101.47V335c-.18-32.83,1.44-68.7,8.76-101.47a217.69,217.69,0,0,1,10.74-34.93,116.61,116.61,0,0,1,21.71-27.88C153.88,159,177.57,150,207.73,143.48Z"/><path class="cls-3" d="M703.21,30a26.11,26.11,0,1,1-7.64,18.46A26,26,0,0,1,703.21,30Z"/><path class="cls-3" d="M43.67,30A26.11,26.11,0,1,1,36,48.46,26,26,0,0,1,43.67,30Z"/><path class="cls-2" d="M391.9,203.87H228.41c-43.49,0-68.08,12.72-82,34.82-13.37,21.23-15.78,50.23-15.59,84.6-.51,95,20.25,123.69,56.35,123.89,21.09.12,46.08-10.66,75.07-23.16,37.54-16.19,82.16-35.43,129.67-35.57,47.5.14,92.12,19.38,129.66,35.57,29,12.5,54,23.28,75.07,23.16,36.1-.2,56.86-28.87,56.35-123.89.18-34.37-2.22-63.37-15.59-84.6-13.93-22.1-38.52-34.82-82-34.82Z"/><path class="cls-4" d="M228.41,225.82h327c36,0,55.62,10,66,27.36,10.93,18.3,12.87,45.69,12.7,78.6v.07c1,188.53-485.34,188.53-484.35,0v-.07c-.17-32.91,1.77-60.3,12.7-78.6,10.36-17.37,30-27.36,66-27.36Z"/><polygon class="cls-2" points="721.66 212.55 721.66 93.53 721.66 212.55 721.66 212.55"/><polygon class="cls-2" points="62.13 94.04 62.13 93.53 62.13 94.04 62.13 94.04"/><path class="cls-3" d="M568.66,124.86c-18.79,17.24-43.77,28-71.11,34.5-33.89,8.11-71.42,9.87-105.62,9.68h-.07c-33.91.19-71.15-1.55-105-9.57-27.29-6.47-52.24-17-71.08-34,39.83-8.78,91.38-13.47,144.58-14.72,76.53-1.8,155.77,3.56,208.28,14.11Z"/><path class="cls-5" d="M539.44,144.6a197.06,197.06,0,0,1-41.89,14.76c-33.89,8.11-71.42,9.87-105.62,9.68h-.07c-33.91.19-71.15-1.55-105-9.57-19.35-4.59-37.53-11.23-53.19-20.76,94.52-14.74,231.09-10.37,305.75,5.89Z"/><path class="cls-5" d="M692.64,444.34c8.38-35.44,10.21-74.12,10-109.28.19-35.15-1.64-73.83-10-109.27,7.28,1.14,13.89,2.43,19.63,3.87,8.12,2,14.26,4.23,17.74,6.54,13.5,9,21.33,24,25.82,41.13,4.77,18.27,5.78,38.94,5.68,57.7v.07c.1,18.76-.91,39.42-5.68,57.7C751.34,409.94,743.51,425,730,433.93c-3.48,2.31-9.62,4.51-17.74,6.54-5.74,1.43-12.35,2.73-19.63,3.87Z"/><path class="cls-3" d="M692.64,444.34c8.38-35.44,10.21-74.12,10-109.28.19-35.15-1.64-73.83-10-109.27,6,.94,11.5,2,16.46,3.11,11,10.26,17.82,24.72,22,40.85,5.41,20.67,6.55,44.05,6.43,65.27v.09c.12,21.22-1,44.6-6.43,65.27-4.21,16.13-11,30.59-22,40.85-5,1.13-10.48,2.17-16.46,3.11Z"/><path class="cls-5" d="M91.16,225.93c-.28,1.18-.55,2.36-.82,3.55-7.69,34.41-9.39,71.62-9.2,105.58-.19,34,1.51,71.18,9.2,105.59.27,1.18.54,2.37.82,3.55a188,188,0,0,1-24-5.66c-8.9-2.8-15.7-6-19.62-9.68-10.76-10-17-24.64-20.65-40.78-3.81-17-4.65-35.79-4.56-53V335c-.09-17.19.75-35.94,4.56-53,3.6-16.14,9.89-30.75,20.65-40.78,3.92-3.65,10.72-6.88,19.62-9.69a189.73,189.73,0,0,1,24-5.65Z"/><path class="cls-6" d="M524.16,273.8h0a27.37,27.37,0,0,0-27.29,27.29v43.29a27.37,27.37,0,0,0,27.29,27.29h0a27.37,27.37,0,0,0,27.28-27.29V301.09a27.37,27.37,0,0,0-27.28-27.29Z"/><path class="cls-6" d="M259.63,273.8h0a27.37,27.37,0,0,0-27.28,27.29v43.29a27.37,27.37,0,0,0,27.28,27.29h0a27.36,27.36,0,0,0,27.28-27.29V301.09a27.36,27.36,0,0,0-27.28-27.29Z"/><path class="cls-5" d="M717.31,31.61a14.14,14.14,0,1,1-4.13,10,14.11,14.11,0,0,1,4.13-10Z"/><path class="cls-5" d="M58.08,33.55a14.1,14.1,0,1,1-4.14,10,14,14,0,0,1,4.14-10Z"/><path class="cls-3" d="M91.16,444.2c-8.38-35.44-10.21-74.13-10-109.28-.19-35.15,1.64-73.84,10-109.28-6,.94-11.5,2-16.47,3.12-11,10.25-17.81,24.72-22,40.84-5.41,20.68-6.55,44-6.43,65.28V335c-.12,21.23,1,44.6,6.43,65.28,4.21,16.12,11,30.59,22,40.84,5,1.14,10.49,2.18,16.47,3.12Z"/><path class="cls-4" d="M134.9,136.22a138.72,138.72,0,0,0-24.83,31.31,188.22,188.22,0,0,0-15.86,35.33q-3.24.48-6.31,1l-3.87.69.38-113.08a47.84,47.84,0,0,0,5.43-3.29,48.44,48.44,0,0,0,6.55-74h0a48.43,48.43,0,0,0-68.5,0h0a48.39,48.39,0,0,0,6.52,74,47.61,47.61,0,0,0,5.38,3.27V219.31c-1.14.71-2.22,1.43-3.24,2.17h0a44.31,44.31,0,0,0-4.23,3.45A82.5,82.5,0,0,0,14.88,248.7a125.31,125.31,0,0,0-9.79,28.54A205.62,205.62,0,0,0,.91,306.4C.16,316.06,0,325.76,0,335.06s.15,19,.9,28.67a204.6,204.6,0,0,0,4.18,29.16,125.48,125.48,0,0,0,9.79,28.54,82.32,82.32,0,0,0,17.41,23.76,53.61,53.61,0,0,0,11.88,8.13,103,103,0,0,0,16.21,6.54c5,1.57,10.5,3,16.44,4.27,5.47,1.18,11.29,2.22,17.39,3.14a187.84,187.84,0,0,0,15.86,35.32A138.28,138.28,0,0,0,134.9,533.9c15.72,14.66,44.78,25.6,81.35,33.29,41,8.63,91.73,13.25,143.6,14.47,58.72,1.37,119.34-1.57,169.29-7.93,48-6.1,86.28-15.42,104-27.17a128.7,128.7,0,0,0,35.35-35.42,179.19,179.19,0,0,0,21.16-43.78c4.93-.69,9.64-1.44,14.09-2.25,5.06-.93,9.75-1.92,14-3h0a119.24,119.24,0,0,0,14.18-4.38,55.33,55.33,0,0,0,10.46-5.21,75.53,75.53,0,0,0,22.5-23.63,112,112,0,0,0,12.58-30.52,193.49,193.49,0,0,0,5.26-31.82c.92-10.6,1.18-21.3,1.12-31.51s-.2-20.9-1.12-31.5a193.49,193.49,0,0,0-5.26-31.82,111.89,111.89,0,0,0-12.52-30.43A75.8,75.8,0,0,0,744,218.76V91.44a47.61,47.61,0,0,0,5.38-3.27,49.59,49.59,0,0,0,6.51-5.45h0a48.43,48.43,0,0,0,0-68.52h0a48.44,48.44,0,0,0-68.5,0h0a48.79,48.79,0,0,0-10.52,15.75,48.54,48.54,0,0,0,0,37A48.79,48.79,0,0,0,687.4,82.72a49.54,49.54,0,0,0,6.52,5.45,48.52,48.52,0,0,0,5.38,3.27V204.25l-3.65-.59q-3-.47-6-.89A179.43,179.43,0,0,0,668.45,159a128.8,128.8,0,0,0-35.35-35.41c-17.68-11.75-56-21.07-104-27.18-49.95-6.36-110.57-9.3-169.29-7.92-51.87,1.22-102.57,5.84-143.6,14.47-36.57,7.69-65.63,18.63-81.35,33.28Zm-48.16,94a379.42,379.42,0,0,0-7.32,52c-1.37,17.86-1.75,35.75-1.65,52.87-.1,17.12.28,35,1.65,52.88a379.27,379.27,0,0,0,7.32,52q-4-.76-7.7-1.65c-3.85-.9-7.5-1.89-10.92-3a81.81,81.81,0,0,1-11.4-4.43,29.25,29.25,0,0,1-6.93-4.5,57.44,57.44,0,0,1-12.27-17.1,100.3,100.3,0,0,1-7.4-21.93,184.55,184.55,0,0,1-3.66-26c-.67-8.95-.86-17.83-.81-26.28h0V335c0-8.45.14-17.33.81-26.28a184.41,184.41,0,0,1,3.66-26,100.39,100.39,0,0,1,7.4-21.94,57.52,57.52,0,0,1,12.27-17.09,28.94,28.94,0,0,1,6.93-4.5,81.81,81.81,0,0,1,11.4-4.43c3.42-1.08,7.07-2.07,10.92-3q3.72-.87,7.7-1.65Zm610.31,210a380.47,380.47,0,0,0,7.18-50.33c1.48-18.5,1.89-37.07,1.79-54.8.1-17.72-.31-36.29-1.79-54.79a380.86,380.86,0,0,0-7.18-50.34c1.8.32,3.61.66,5.4,1,3.24.64,6.26,1.31,9,2A102.56,102.56,0,0,1,721.86,236a32,32,0,0,1,6.29,3,50.45,50.45,0,0,1,15.26,16.42,87,87,0,0,1,9.15,22.75,168,168,0,0,1,4.57,28.09c.83,9.78,1.06,19.52,1,28.74v.09h0c.05,9.23-.18,19-1,28.75A168,168,0,0,1,752.56,392a86.82,86.82,0,0,1-9.15,22.74,50.47,50.47,0,0,1-15.26,16.43,31.82,31.82,0,0,1-6.3,3,102.78,102.78,0,0,1-10.39,3.1h0q-4.17,1.05-9,2-2.7.54-5.41,1ZM193.43,134.75a142.61,142.61,0,0,0,39,28.82c15.19,7.81,31.87,13.52,49.27,17.65a368.26,368.26,0,0,0,55.27,8.3c18.52,1.48,37.13,1.89,54.91,1.8,17.84.09,36.53-.32,55.17-1.83A368.24,368.24,0,0,0,502.7,181c17.59-4.21,34.38-10,49.57-17.94a140.93,140.93,0,0,0,39.07-29.36,159.08,159.08,0,0,1,15.58,5.22,66.38,66.38,0,0,1,12,6.05c13.24,8.79,23.68,20.47,31.9,34.08s14.35,29.45,18.72,46.17a327.83,327.83,0,0,1,8.89,54.49c1.61,18.76,2.05,37.51,2,55.28v.09h0c.1,17.78-.34,36.52-2,55.28a328,328,0,0,1-8.89,54.5c-4.37,16.72-10.42,32.42-18.72,46.17s-18.66,25.29-31.9,34.08c-15.36,10.21-50.79,18.4-95.87,23.84-47.68,5.75-105.9,8.37-162.59,7-49.35-1.16-97.3-5.29-135.7-12.93-33.39-6.64-59.36-15.86-72.36-28C141.89,505.31,133.58,493.36,127,480s-11.43-28.45-14.94-44.14A353.62,353.62,0,0,1,105,385.61c-1.29-17.16-1.65-34.23-1.56-50.5h0V335c-.09-16.27.27-33.33,1.56-50.49a353.76,353.76,0,0,1,7.12-50.24c3.51-15.69,8.34-30.65,14.94-44.13S141.89,164.82,152.4,155a69.79,69.79,0,0,1,17-11.07,166.46,166.46,0,0,1,24.06-9.21Zm367.75-7.9a129.05,129.05,0,0,1-26.3,16.22,197.88,197.88,0,0,1-38.11,13,343.09,343.09,0,0,1-52.18,7.86c-17.88,1.43-35.7,1.83-52.64,1.73h-.11c-16.8.1-34.47-.29-52.24-1.71a345.1,345.1,0,0,1-52-7.78,201.46,201.46,0,0,1-38.06-12.83,130.7,130.7,0,0,1-26.35-16c17.49-3.54,37-6.35,57.86-8.47,25.11-2.56,52-4.11,79.36-4.76,38.12-.89,77,0,112.87,2.43,32.76,2.22,63,5.72,87.85,10.31ZM46.06,32.39a22.79,22.79,0,0,1,24.75-4.94h0a22.79,22.79,0,0,1,12.3,29.69h0a22.69,22.69,0,0,1-4.94,7.37h0a22.78,22.78,0,0,1-7.36,4.93h0A22.73,22.73,0,0,1,41.13,39.77h0a22.61,22.61,0,0,1,4.93-7.37Zm659.54,0a22.79,22.79,0,0,1,24.75-4.94h0a22.78,22.78,0,0,1,12.31,29.69h0a22.88,22.88,0,0,1-4.95,7.37h0A22.79,22.79,0,0,1,713,69.46h0a22.93,22.93,0,0,1-12.3-12.31h0a22.66,22.66,0,0,1,4.94-24.75Z"/></g></g></svg>