<svg xmlns="http://www.w3.org/2000/svg" viewBox="0 0 783.79 584.06"><defs><style>.cls-1{fill:#c9eeff;}.cls-2{fill:#fff;}.cls-3,.cls-6{fill:#00a1eb;}.cls-4{fill:#001d57;}.cls-5{fill:#78d4ff;}.cls-6{fill-rule:evenodd;}</style></defs><g id="Layer_2" data-name="Layer 2"><g id="Layer_1-2" data-name="Layer 1"><path class="cls-1" d="M194.48,130.92c22.36,24.54,53.67,38.86,88,47,35.39,8.38,74.15,10.21,109.4,10,35.38.19,74.35-1.66,110-10.21,34.61-8.29,66.07-22.85,88.31-47.82,13.32,3.65,23.78,7.75,30.55,12.25,27.37,18.19,43.12,48.16,52,82.22,9.2,35.2,11.15,74.76,11,110.64v.07c.2,35.87-1.75,75.44-11,110.64-8.9,34.06-24.65,64-52,82.22-32.41,21.54-149.27,34-260.4,31.42-93.24-2.19-181.46-14.94-210.28-41.81-21.64-20.16-34.18-49.12-41.3-81-7.32-32.78-8.94-68.64-8.76-101.47V335c-.18-32.83,1.44-68.7,8.76-101.47,7.12-31.88,19.66-60.84,41.3-81,9.26-8.63,24.66-15.81,44.38-21.64Z"/><path class="cls-2" d="M207.73,143.48c20.76,17.05,46.76,27.81,74.77,34.45,35.39,8.38,74.15,10.21,109.4,10,35.38.19,74.35-1.66,110-10.21,23.09-5.53,44.78-13.85,63.27-26.2,8,2.72,14.57,5.65,19.29,8.79,54.39,36.14,62.11,117.34,61.74,184.49.37,67.15-7.35,148.35-61.74,184.5-26.27,17.45-108.43,28.76-195.72,30.4-9.46,0-18.94-.12-28.38-.34-93.24-2.19-181.46-14.94-210.28-41.81-21.64-20.16-34.18-49.12-41.3-81-7.32-32.78-8.94-68.64-8.76-101.47V335c-.18-32.83,1.44-68.7,8.76-101.47a216.68,216.68,0,0,1,10.74-34.93,116.61,116.61,0,0,1,21.71-27.88C153.88,159,177.57,150,207.73,143.48Z"/><path class="cls-3" d="M80.58,30a26.11,26.11,0,1,0,7.64,18.46A26,26,0,0,0,80.58,30Z"/><path class="cls-3" d="M740.11,30a26.09,26.09,0,1,0,7.65,18.46A26,26,0,0,0,740.11,30Z"/><path class="cls-4" d="M522.32,225.82h-327c-36,0-55.62,10-66,27.36-10.92,18.3-12.86,45.69-12.69,78.6v.08c-1,188.52,485.34,188.52,484.35,0v-.08c.17-32.91-1.77-60.3-12.69-78.6-10.38-17.37-30-27.36-66-27.36Z"/><polygon class="cls-2" points="62.13 212.55 62.13 93.53 62.13 212.55 62.13 212.55"/><polygon class="cls-2" points="721.66 94.04 721.66 93.53 721.66 94.04 721.66 94.04"/><path class="cls-3" d="M215.13,124.86c18.79,17.24,43.77,28,71.11,34.5,33.89,8.11,71.42,9.87,105.62,9.68h.07c33.91.19,71.15-1.55,105-9.57,27.28-6.47,52.23-17,71.07-34-39.83-8.78-91.39-13.47-144.58-14.72-76.53-1.8-155.77,3.56-208.28,14.11Z"/><path class="cls-5" d="M244.35,144.6a197.26,197.26,0,0,0,41.89,14.76c33.89,8.11,71.42,9.87,105.62,9.68h.07c33.91.19,71.15-1.55,105-9.57,19.34-4.59,37.52-11.23,53.18-20.76C455.58,124,319,128.34,244.35,144.6Z"/><path class="cls-5" d="M91.15,444.34c-8.38-35.44-10.21-74.12-10-109.28-.19-35.15,1.64-73.83,10-109.27-7.28,1.14-13.89,2.43-19.63,3.87-8.12,2-14.26,4.23-17.74,6.54-13.51,9-21.34,24-25.82,41.13-4.77,18.27-5.78,38.94-5.68,57.7v.07c-.1,18.76.91,39.42,5.68,57.7,4.48,17.14,12.31,32.15,25.82,41.13,3.48,2.31,9.62,4.51,17.74,6.54,5.74,1.43,12.35,2.73,19.63,3.87Z"/><path class="cls-3" d="M91.15,444.34c-8.38-35.44-10.21-74.12-10-109.28-.19-35.15,1.64-73.83,10-109.27-6,.94-11.5,2-16.46,3.11-11,10.26-17.82,24.72-22,40.85-5.41,20.67-6.55,44.05-6.43,65.27v.09c-.12,21.22,1,44.6,6.43,65.27,4.21,16.13,11.05,30.59,22,40.85,5,1.13,10.48,2.17,16.46,3.11Z"/><path class="cls-5" d="M692.63,225.93c.28,1.18.55,2.36.82,3.55,7.69,34.41,9.39,71.62,9.21,105.58.18,34-1.52,71.18-9.21,105.59-.27,1.18-.54,2.37-.82,3.55a188,188,0,0,0,24-5.66c8.9-2.8,15.7-6,19.62-9.68,10.77-10,17.05-24.64,20.65-40.78,3.81-17,4.65-35.79,4.56-53V335c.09-17.19-.75-35.94-4.56-53-3.6-16.14-9.88-30.75-20.65-40.78-3.92-3.65-10.72-6.88-19.62-9.69a189.73,189.73,0,0,0-24-5.65Z"/><path class="cls-6" d="M186.9,274.75h0A27.36,27.36,0,0,1,214.18,302v43.3a27.36,27.36,0,0,1-27.28,27.28h0a27.37,27.37,0,0,1-27.28-27.28V302a27.37,27.37,0,0,1,27.28-27.28Z"/><path class="cls-6" d="M451.43,274.75h0A27.37,27.37,0,0,1,478.71,302v43.3a27.37,27.37,0,0,1-27.28,27.28h0a27.37,27.37,0,0,1-27.29-27.28V302a27.37,27.37,0,0,1,27.29-27.28Z"/><path class="cls-5" d="M66.48,31.61a14.14,14.14,0,1,0,4.13,10,14.11,14.11,0,0,0-4.13-10Z"/><path class="cls-5" d="M725.71,33.55a14.1,14.1,0,1,0,4.14,10,14,14,0,0,0-4.14-10Z"/><path class="cls-3" d="M692.63,444.2c8.38-35.44,10.21-74.13,10-109.28.19-35.15-1.64-73.84-10-109.28,6,.94,11.5,2,16.46,3.12,11,10.25,17.82,24.72,22,40.84,5.41,20.68,6.55,44,6.43,65.28V335c.12,21.23-1,44.6-6.43,65.28-4.21,16.12-11,30.59-22,40.84-5,1.14-10.48,2.18-16.46,3.12Z"/><path class="cls-4" d="M648.89,136.22a138.4,138.4,0,0,1,24.82,31.31,187.62,187.62,0,0,1,15.87,35.33c2.16.33,4.26.66,6.31,1l3.87.69-.38-113.08a48.86,48.86,0,0,1-5.44-3.29,49.87,49.87,0,0,1-6.54-5.47A48.79,48.79,0,0,1,676.88,67a48.54,48.54,0,0,1,0-37A48.79,48.79,0,0,1,687.4,14.19h0a48.43,48.43,0,0,1,68.5,0h0a48.47,48.47,0,0,1,0,68.52,49.64,49.64,0,0,1-6.53,5.45A47.61,47.61,0,0,1,744,91.44V219.31c1.14.71,2.22,1.43,3.24,2.17h0a42.91,42.91,0,0,1,4.23,3.46,82.32,82.32,0,0,1,17.41,23.76,125.48,125.48,0,0,1,9.79,28.54,204.19,204.19,0,0,1,4.18,29.16c.75,9.66,1,19.36.9,28.66s-.15,19-.9,28.67a204.6,204.6,0,0,1-4.18,29.16,125.48,125.48,0,0,1-9.79,28.54,82.32,82.32,0,0,1-17.41,23.76,53.61,53.61,0,0,1-11.88,8.13,103,103,0,0,1-16.21,6.54c-5,1.57-10.5,3-16.44,4.27-5.47,1.18-11.3,2.22-17.39,3.14-42.22,125.45-310.36,125.41-427,109.56-76.74-10.44-144.93-39.44-168.44-109.47-4.92-.69-9.63-1.44-14.08-2.25-5.06-.93-9.75-1.92-14-3h0a119.24,119.24,0,0,1-14.18-4.38,54.73,54.73,0,0,1-10.46-5.22A75.24,75.24,0,0,1,19,428.91,111.74,111.74,0,0,1,6.39,398.39a193.49,193.49,0,0,1-5.26-31.82C.21,356,0,345.27,0,335.06s.2-20.9,1.12-31.5a193.49,193.49,0,0,1,5.26-31.82,111.89,111.89,0,0,1,12.52-30.43,75.67,75.67,0,0,1,20.86-22.55V91.44a47.61,47.61,0,0,1-5.38-3.27,49,49,0,0,1-6.51-5.45h0a48.46,48.46,0,0,1,0-68.52h0a48.43,48.43,0,0,1,68.5,0h0a48.79,48.79,0,0,1,10.52,15.75,48.54,48.54,0,0,1,0,37A48.71,48.71,0,0,1,84.49,91.44V204.25l3.65-.59q3-.47,6-.89A179.58,179.58,0,0,1,115.34,159a128.7,128.7,0,0,1,35.35-35.42c17.68-11.75,56-21.07,104-27.18,50-6.36,110.57-9.3,169.29-7.92,51.87,1.22,102.57,5.84,143.6,14.47,36.56,7.69,65.63,18.63,81.35,33.28Zm48.16,94a379.42,379.42,0,0,1,7.32,52c1.37,17.86,1.75,35.75,1.65,52.87.1,17.12-.28,35-1.65,52.88a379.27,379.27,0,0,1-7.32,52q4-.76,7.7-1.65c3.85-.9,7.5-1.89,10.92-3a81.81,81.81,0,0,0,11.4-4.43,29.25,29.25,0,0,0,6.93-4.5,57.44,57.44,0,0,0,12.27-17.1,99.76,99.76,0,0,0,7.39-21.93,183.3,183.3,0,0,0,3.67-26c.67-8.95.85-17.83.81-26.27V335c0-8.45-.14-17.33-.81-26.28a183,183,0,0,0-3.67-26,99.58,99.58,0,0,0-7.39-21.93A57.44,57.44,0,0,0,734,243.74a29.25,29.25,0,0,0-6.93-4.5,81.81,81.81,0,0,0-11.4-4.43q-5.13-1.62-10.93-3-3.72-.87-7.69-1.65Zm-610.31,210a380.47,380.47,0,0,1-7.18-50.33c-1.48-18.5-1.89-37.07-1.8-54.8-.09-17.72.32-36.29,1.8-54.79a380.86,380.86,0,0,1,7.18-50.34c-1.8.32-3.61.66-5.4,1-3.25.64-6.25,1.31-9,2A102.56,102.56,0,0,0,61.93,236a32,32,0,0,0-6.29,3,50.56,50.56,0,0,0-15.26,16.42,87,87,0,0,0-9.15,22.75,169.08,169.08,0,0,0-4.57,28.09c-.83,9.78-1.06,19.52-1,28.74v.11c0,9.22.18,18.95,1,28.74A169.08,169.08,0,0,0,31.23,392a86.82,86.82,0,0,0,9.15,22.74,50.58,50.58,0,0,0,15.26,16.43,31.82,31.82,0,0,0,6.3,3,104.43,104.43,0,0,0,10.39,3.11h0q4.17,1,9,2,2.7.54,5.41,1ZM590.35,134.75a142.26,142.26,0,0,1-39,28.82c-15.19,7.81-31.87,13.52-49.27,17.65a368.32,368.32,0,0,1-55.26,8.3c-18.53,1.48-37.15,1.89-54.92,1.8-17.83.09-36.53-.32-55.16-1.83A368.18,368.18,0,0,1,281.09,181c-17.59-4.21-34.37-10-49.58-17.94a141,141,0,0,1-39.06-29.36,159.08,159.08,0,0,0-15.58,5.22,66.38,66.38,0,0,0-12,6.05c-13.24,8.79-23.68,20.47-31.91,34.08s-14.34,29.45-18.71,46.17a327.83,327.83,0,0,0-8.89,54.49c-1.61,18.76-2,37.51-2,55.28v.11c-.1,17.77.34,36.51,2,55.27a328,328,0,0,0,8.89,54.5c18.09,67.49,81.77,96,154.73,106.32,114.59,16.2,372.5,19.88,402.72-115.37a353.62,353.62,0,0,0,7.12-50.23c1.29-17.16,1.65-34.23,1.56-50.49V335c.09-16.27-.27-33.33-1.56-50.49a353.76,353.76,0,0,0-7.12-50.24c-3.51-15.69-8.34-30.65-14.94-44.13S641.9,164.82,631.39,155a69.79,69.79,0,0,0-17-11.07,166.16,166.16,0,0,0-24.07-9.21Zm-367.74-7.9a129.05,129.05,0,0,0,26.3,16.22,197.65,197.65,0,0,0,38.11,13,343.09,343.09,0,0,0,52.18,7.86c17.88,1.43,35.7,1.83,52.64,1.73h.1c16.81.1,34.48-.29,52.25-1.71a345.1,345.1,0,0,0,51.95-7.78,200.76,200.76,0,0,0,38.06-12.83,130.7,130.7,0,0,0,26.35-16c-17.49-3.54-37-6.35-57.86-8.47-25.11-2.56-52-4.11-79.36-4.76-38.12-.89-77,0-112.86,2.43-32.77,2.22-63,5.72-87.86,10.31ZM737.73,32.39A22.79,22.79,0,0,0,713,27.45h0a22.79,22.79,0,0,0-12.3,29.69h0a22.69,22.69,0,0,0,4.94,7.37h0A22.78,22.78,0,0,0,713,69.46h0a22.63,22.63,0,0,0,24.74-4.94,22.73,22.73,0,0,0,4.94-24.75h0a22.61,22.61,0,0,0-4.93-7.37Zm-659.54,0a22.79,22.79,0,0,0-24.75-4.94h0a22.75,22.75,0,0,0-12.3,29.69h0a22.69,22.69,0,0,0,4.94,7.37h0a22.79,22.79,0,0,0,24.74,4.93h0a22.93,22.93,0,0,0,12.3-12.31h0a22.66,22.66,0,0,0-4.94-24.75Z"/></g></g></svg>